<mxfile host="app.diagrams.net" modified="2024-01-21T17:59:54.952Z" agent="Mozilla/5.0 (Windows NT 10.0; Win64; x64) AppleWebKit/537.36 (KHTML, like Gecko) Chrome/120.0.0.0 Safari/537.36 Edg/120.0.0.0" etag="32u_1_PlRduRk-lvpBuk" version="22.1.21" type="device">
  <diagram name="Page-1" id="EaIvLrpxYG2G-w6vfHeI">
    <mxGraphModel dx="2194" dy="1168" grid="1" gridSize="10" guides="1" tooltips="1" connect="1" arrows="1" fold="1" page="1" pageScale="1" pageWidth="850" pageHeight="1100" math="0" shadow="0">
      <root>
        <mxCell id="0" />
        <mxCell id="1" parent="0" />
        <mxCell id="e1R7ls-yrtdwoGHiuw3v-40" style="edgeStyle=orthogonalEdgeStyle;rounded=0;orthogonalLoop=1;jettySize=auto;html=1;exitX=0;exitY=0.5;exitDx=0;exitDy=0;entryX=0.5;entryY=0;entryDx=0;entryDy=0;" edge="1" parent="1" source="e1R7ls-yrtdwoGHiuw3v-1" target="e1R7ls-yrtdwoGHiuw3v-36">
          <mxGeometry relative="1" as="geometry" />
        </mxCell>
        <mxCell id="e1R7ls-yrtdwoGHiuw3v-1" value="&lt;font style=&quot;font-size: 18px;&quot;&gt;API Gateway&lt;/font&gt;" style="rounded=0;whiteSpace=wrap;html=1;fillColor=#d5e8d4;strokeColor=#82b366;" vertex="1" parent="1">
          <mxGeometry x="205" y="170" width="470" height="90" as="geometry" />
        </mxCell>
        <mxCell id="e1R7ls-yrtdwoGHiuw3v-2" value="Desktop" style="rounded=0;whiteSpace=wrap;html=1;" vertex="1" parent="1">
          <mxGeometry x="295" y="60" width="120" height="60" as="geometry" />
        </mxCell>
        <mxCell id="e1R7ls-yrtdwoGHiuw3v-3" value="Mobile" style="rounded=0;whiteSpace=wrap;html=1;" vertex="1" parent="1">
          <mxGeometry x="465" y="60" width="120" height="60" as="geometry" />
        </mxCell>
        <mxCell id="e1R7ls-yrtdwoGHiuw3v-5" style="edgeStyle=orthogonalEdgeStyle;rounded=0;orthogonalLoop=1;jettySize=auto;html=1;exitX=0.5;exitY=1;exitDx=0;exitDy=0;entryX=0.318;entryY=-0.08;entryDx=0;entryDy=0;entryPerimeter=0;" edge="1" parent="1" source="e1R7ls-yrtdwoGHiuw3v-2" target="e1R7ls-yrtdwoGHiuw3v-1">
          <mxGeometry relative="1" as="geometry" />
        </mxCell>
        <mxCell id="e1R7ls-yrtdwoGHiuw3v-6" style="edgeStyle=orthogonalEdgeStyle;rounded=0;orthogonalLoop=1;jettySize=auto;html=1;exitX=0.5;exitY=1;exitDx=0;exitDy=0;entryX=0.682;entryY=-0.069;entryDx=0;entryDy=0;entryPerimeter=0;" edge="1" parent="1" source="e1R7ls-yrtdwoGHiuw3v-3" target="e1R7ls-yrtdwoGHiuw3v-1">
          <mxGeometry relative="1" as="geometry" />
        </mxCell>
        <mxCell id="e1R7ls-yrtdwoGHiuw3v-76" style="edgeStyle=orthogonalEdgeStyle;rounded=0;orthogonalLoop=1;jettySize=auto;html=1;exitX=0;exitY=0.5;exitDx=0;exitDy=0;entryX=1;entryY=0.5;entryDx=0;entryDy=0;" edge="1" parent="1" source="e1R7ls-yrtdwoGHiuw3v-12" target="e1R7ls-yrtdwoGHiuw3v-54">
          <mxGeometry relative="1" as="geometry" />
        </mxCell>
        <mxCell id="e1R7ls-yrtdwoGHiuw3v-12" value="" style="swimlane;startSize=0;" vertex="1" parent="1">
          <mxGeometry x="585" y="470" width="200" height="100" as="geometry" />
        </mxCell>
        <mxCell id="e1R7ls-yrtdwoGHiuw3v-56" value="" style="shape=cylinder3;whiteSpace=wrap;html=1;boundedLbl=1;backgroundOutline=1;size=15;" vertex="1" parent="e1R7ls-yrtdwoGHiuw3v-12">
          <mxGeometry x="75" y="40" width="50" height="50" as="geometry" />
        </mxCell>
        <mxCell id="e1R7ls-yrtdwoGHiuw3v-13" value="&lt;font style=&quot;font-size: 16px;&quot;&gt;Content Uploading&lt;/font&gt;" style="text;html=1;strokeColor=none;fillColor=none;align=center;verticalAlign=middle;whiteSpace=wrap;rounded=0;" vertex="1" parent="1">
          <mxGeometry x="610" y="280" width="150" height="30" as="geometry" />
        </mxCell>
        <mxCell id="e1R7ls-yrtdwoGHiuw3v-14" value="&lt;font style=&quot;font-size: 16px;&quot;&gt;Feeds&lt;/font&gt;" style="text;html=1;strokeColor=none;fillColor=none;align=center;verticalAlign=middle;whiteSpace=wrap;rounded=0;" vertex="1" parent="1">
          <mxGeometry x="610" y="430" width="150" height="30" as="geometry" />
        </mxCell>
        <mxCell id="e1R7ls-yrtdwoGHiuw3v-78" style="edgeStyle=orthogonalEdgeStyle;rounded=0;orthogonalLoop=1;jettySize=auto;html=1;exitX=1;exitY=0.5;exitDx=0;exitDy=0;entryX=0;entryY=0.5;entryDx=0;entryDy=0;" edge="1" parent="1" source="e1R7ls-yrtdwoGHiuw3v-15" target="e1R7ls-yrtdwoGHiuw3v-54">
          <mxGeometry relative="1" as="geometry" />
        </mxCell>
        <mxCell id="e1R7ls-yrtdwoGHiuw3v-15" value="" style="swimlane;startSize=0;" vertex="1" parent="1">
          <mxGeometry x="10" y="420" width="200" height="110" as="geometry" />
        </mxCell>
        <mxCell id="e1R7ls-yrtdwoGHiuw3v-59" value="" style="shape=cylinder3;whiteSpace=wrap;html=1;boundedLbl=1;backgroundOutline=1;size=15;" vertex="1" parent="e1R7ls-yrtdwoGHiuw3v-15">
          <mxGeometry x="70" y="50" width="50" height="50" as="geometry" />
        </mxCell>
        <mxCell id="e1R7ls-yrtdwoGHiuw3v-16" value="&lt;font style=&quot;font-size: 16px;&quot;&gt;Interaction&lt;/font&gt;" style="text;html=1;strokeColor=none;fillColor=none;align=center;verticalAlign=middle;whiteSpace=wrap;rounded=0;" vertex="1" parent="1">
          <mxGeometry x="30" y="380" width="150" height="30" as="geometry" />
        </mxCell>
        <mxCell id="e1R7ls-yrtdwoGHiuw3v-69" style="edgeStyle=orthogonalEdgeStyle;rounded=0;orthogonalLoop=1;jettySize=auto;html=1;exitX=1;exitY=0.5;exitDx=0;exitDy=0;entryX=0;entryY=0.5;entryDx=0;entryDy=0;" edge="1" parent="1" source="e1R7ls-yrtdwoGHiuw3v-19" target="e1R7ls-yrtdwoGHiuw3v-54">
          <mxGeometry relative="1" as="geometry" />
        </mxCell>
        <mxCell id="e1R7ls-yrtdwoGHiuw3v-19" value="" style="swimlane;startSize=0;" vertex="1" parent="1">
          <mxGeometry x="10" y="605" width="200" height="105" as="geometry" />
        </mxCell>
        <mxCell id="e1R7ls-yrtdwoGHiuw3v-60" value="" style="shape=cylinder3;whiteSpace=wrap;html=1;boundedLbl=1;backgroundOutline=1;size=15;" vertex="1" parent="e1R7ls-yrtdwoGHiuw3v-19">
          <mxGeometry x="70" y="45" width="50" height="50" as="geometry" />
        </mxCell>
        <mxCell id="e1R7ls-yrtdwoGHiuw3v-21" value="&lt;font style=&quot;font-size: 16px;&quot;&gt;Messaging&lt;/font&gt;" style="text;html=1;strokeColor=none;fillColor=none;align=center;verticalAlign=middle;whiteSpace=wrap;rounded=0;" vertex="1" parent="1">
          <mxGeometry x="35" y="570" width="150" height="30" as="geometry" />
        </mxCell>
        <mxCell id="e1R7ls-yrtdwoGHiuw3v-22" value="" style="swimlane;startSize=0;" vertex="1" parent="1">
          <mxGeometry x="10" y="765" width="200" height="105" as="geometry" />
        </mxCell>
        <mxCell id="e1R7ls-yrtdwoGHiuw3v-61" value="" style="shape=cylinder3;whiteSpace=wrap;html=1;boundedLbl=1;backgroundOutline=1;size=15;" vertex="1" parent="e1R7ls-yrtdwoGHiuw3v-22">
          <mxGeometry x="70" y="45" width="50" height="50" as="geometry" />
        </mxCell>
        <mxCell id="e1R7ls-yrtdwoGHiuw3v-23" value="&lt;font style=&quot;font-size: 16px;&quot;&gt;Notification&lt;/font&gt;" style="text;html=1;strokeColor=none;fillColor=none;align=center;verticalAlign=middle;whiteSpace=wrap;rounded=0;" vertex="1" parent="1">
          <mxGeometry x="35" y="730" width="150" height="30" as="geometry" />
        </mxCell>
        <mxCell id="e1R7ls-yrtdwoGHiuw3v-24" value="" style="swimlane;startSize=0;" vertex="1" parent="1">
          <mxGeometry x="585" y="640" width="200" height="105" as="geometry" />
        </mxCell>
        <mxCell id="e1R7ls-yrtdwoGHiuw3v-62" value="" style="shape=cylinder3;whiteSpace=wrap;html=1;boundedLbl=1;backgroundOutline=1;size=15;" vertex="1" parent="e1R7ls-yrtdwoGHiuw3v-24">
          <mxGeometry x="75" y="40" width="50" height="50" as="geometry" />
        </mxCell>
        <mxCell id="e1R7ls-yrtdwoGHiuw3v-25" value="&lt;font style=&quot;font-size: 16px;&quot;&gt;Analytics&lt;/font&gt;" style="text;html=1;strokeColor=none;fillColor=none;align=center;verticalAlign=middle;whiteSpace=wrap;rounded=0;" vertex="1" parent="1">
          <mxGeometry x="610" y="590" width="150" height="30" as="geometry" />
        </mxCell>
        <mxCell id="e1R7ls-yrtdwoGHiuw3v-77" style="edgeStyle=orthogonalEdgeStyle;rounded=0;orthogonalLoop=1;jettySize=auto;html=1;exitX=0;exitY=0.5;exitDx=0;exitDy=0;entryX=1;entryY=0.5;entryDx=0;entryDy=0;" edge="1" parent="1" source="e1R7ls-yrtdwoGHiuw3v-28" target="e1R7ls-yrtdwoGHiuw3v-54">
          <mxGeometry relative="1" as="geometry" />
        </mxCell>
        <mxCell id="e1R7ls-yrtdwoGHiuw3v-28" value="" style="swimlane;startSize=0;" vertex="1" parent="1">
          <mxGeometry x="585" y="320" width="200" height="90" as="geometry" />
        </mxCell>
        <mxCell id="e1R7ls-yrtdwoGHiuw3v-58" value="" style="shape=cylinder3;whiteSpace=wrap;html=1;boundedLbl=1;backgroundOutline=1;size=15;" vertex="1" parent="e1R7ls-yrtdwoGHiuw3v-28">
          <mxGeometry x="75" y="30" width="50" height="50" as="geometry" />
        </mxCell>
        <mxCell id="e1R7ls-yrtdwoGHiuw3v-33" value="Service Registry" style="rounded=0;whiteSpace=wrap;html=1;fillColor=#ffe6cc;strokeColor=#d79b00;" vertex="1" parent="1">
          <mxGeometry x="585" y="180" width="80" height="70" as="geometry" />
        </mxCell>
        <mxCell id="e1R7ls-yrtdwoGHiuw3v-35" value="" style="swimlane;startSize=0;fillColor=#e1d5e7;strokeColor=#9673a6;" vertex="1" parent="1">
          <mxGeometry x="5" y="280" width="200" height="80" as="geometry" />
        </mxCell>
        <mxCell id="e1R7ls-yrtdwoGHiuw3v-37" value="Google OAuth" style="text;html=1;strokeColor=none;fillColor=none;align=center;verticalAlign=middle;whiteSpace=wrap;rounded=0;" vertex="1" parent="e1R7ls-yrtdwoGHiuw3v-35">
          <mxGeometry x="10" y="25" width="90" height="30" as="geometry" />
        </mxCell>
        <mxCell id="e1R7ls-yrtdwoGHiuw3v-38" value="Facebook OAuth" style="text;html=1;strokeColor=none;fillColor=none;align=center;verticalAlign=middle;whiteSpace=wrap;rounded=0;" vertex="1" parent="e1R7ls-yrtdwoGHiuw3v-35">
          <mxGeometry x="100" y="25" width="90" height="30" as="geometry" />
        </mxCell>
        <mxCell id="e1R7ls-yrtdwoGHiuw3v-36" value="&lt;font style=&quot;font-size: 16px;&quot;&gt;Authentication&lt;/font&gt;" style="text;html=1;strokeColor=none;fillColor=none;align=center;verticalAlign=middle;whiteSpace=wrap;rounded=0;" vertex="1" parent="1">
          <mxGeometry x="30" y="250" width="150" height="30" as="geometry" />
        </mxCell>
        <mxCell id="e1R7ls-yrtdwoGHiuw3v-72" style="edgeStyle=orthogonalEdgeStyle;rounded=0;orthogonalLoop=1;jettySize=auto;html=1;exitX=0.5;exitY=1;exitDx=0;exitDy=0;entryX=0.5;entryY=0;entryDx=0;entryDy=0;" edge="1" parent="1" source="e1R7ls-yrtdwoGHiuw3v-51" target="e1R7ls-yrtdwoGHiuw3v-55">
          <mxGeometry relative="1" as="geometry" />
        </mxCell>
        <mxCell id="e1R7ls-yrtdwoGHiuw3v-51" value="Kafka Message Broker" style="shape=parallelogram;perimeter=parallelogramPerimeter;whiteSpace=wrap;html=1;fixedSize=1;" vertex="1" parent="1">
          <mxGeometry x="345" y="430" width="120" height="60" as="geometry" />
        </mxCell>
        <mxCell id="e1R7ls-yrtdwoGHiuw3v-71" style="edgeStyle=orthogonalEdgeStyle;rounded=0;orthogonalLoop=1;jettySize=auto;html=1;exitX=0.5;exitY=1;exitDx=0;exitDy=0;entryX=0.5;entryY=0;entryDx=0;entryDy=0;" edge="1" parent="1" source="e1R7ls-yrtdwoGHiuw3v-54" target="e1R7ls-yrtdwoGHiuw3v-51">
          <mxGeometry relative="1" as="geometry" />
        </mxCell>
        <mxCell id="e1R7ls-yrtdwoGHiuw3v-54" value="Event Publisher" style="rounded=0;whiteSpace=wrap;html=1;rotation=0;" vertex="1" parent="1">
          <mxGeometry x="337.5" y="360" width="135" height="40" as="geometry" />
        </mxCell>
        <mxCell id="e1R7ls-yrtdwoGHiuw3v-70" style="edgeStyle=orthogonalEdgeStyle;rounded=0;orthogonalLoop=1;jettySize=auto;html=1;exitX=1;exitY=0.5;exitDx=0;exitDy=0;entryX=0;entryY=0.5;entryDx=0;entryDy=0;" edge="1" parent="1" source="e1R7ls-yrtdwoGHiuw3v-55" target="e1R7ls-yrtdwoGHiuw3v-24">
          <mxGeometry relative="1" as="geometry" />
        </mxCell>
        <mxCell id="e1R7ls-yrtdwoGHiuw3v-74" style="edgeStyle=orthogonalEdgeStyle;rounded=0;orthogonalLoop=1;jettySize=auto;html=1;exitX=0;exitY=0.5;exitDx=0;exitDy=0;entryX=1;entryY=0.5;entryDx=0;entryDy=0;" edge="1" parent="1" source="e1R7ls-yrtdwoGHiuw3v-55" target="e1R7ls-yrtdwoGHiuw3v-19">
          <mxGeometry relative="1" as="geometry" />
        </mxCell>
        <mxCell id="e1R7ls-yrtdwoGHiuw3v-75" style="edgeStyle=orthogonalEdgeStyle;rounded=0;orthogonalLoop=1;jettySize=auto;html=1;exitX=0;exitY=0.5;exitDx=0;exitDy=0;entryX=1;entryY=0.5;entryDx=0;entryDy=0;" edge="1" parent="1" source="e1R7ls-yrtdwoGHiuw3v-55" target="e1R7ls-yrtdwoGHiuw3v-22">
          <mxGeometry relative="1" as="geometry" />
        </mxCell>
        <mxCell id="e1R7ls-yrtdwoGHiuw3v-79" style="edgeStyle=orthogonalEdgeStyle;rounded=0;orthogonalLoop=1;jettySize=auto;html=1;exitX=0;exitY=0.5;exitDx=0;exitDy=0;entryX=1;entryY=0.5;entryDx=0;entryDy=0;" edge="1" parent="1" source="e1R7ls-yrtdwoGHiuw3v-55" target="e1R7ls-yrtdwoGHiuw3v-15">
          <mxGeometry relative="1" as="geometry" />
        </mxCell>
        <mxCell id="e1R7ls-yrtdwoGHiuw3v-55" value="Event Consumer" style="rounded=0;whiteSpace=wrap;html=1;rotation=0;" vertex="1" parent="1">
          <mxGeometry x="337.5" y="520" width="135" height="40" as="geometry" />
        </mxCell>
        <mxCell id="e1R7ls-yrtdwoGHiuw3v-63" value="Google Firestore" style="shape=cylinder3;whiteSpace=wrap;html=1;boundedLbl=1;backgroundOutline=1;size=15;" vertex="1" parent="1">
          <mxGeometry x="750" y="170" width="60" height="80" as="geometry" />
        </mxCell>
        <mxCell id="e1R7ls-yrtdwoGHiuw3v-81" style="edgeStyle=orthogonalEdgeStyle;rounded=0;orthogonalLoop=1;jettySize=auto;html=1;exitX=1;exitY=0.5;exitDx=0;exitDy=0;entryX=1;entryY=0.5;entryDx=0;entryDy=0;entryPerimeter=0;" edge="1" parent="1" source="e1R7ls-yrtdwoGHiuw3v-28" target="e1R7ls-yrtdwoGHiuw3v-63">
          <mxGeometry relative="1" as="geometry" />
        </mxCell>
      </root>
    </mxGraphModel>
  </diagram>
</mxfile>
